<svg width="223" height="110" viewBox="0 0 223 110" fill="none" xmlns="http://www.w3.org/2000/svg">
<path d="M109.82 18.5087C111.379 18.1959 112.965 18.0354 114.555 18.0293C127.765 18.1032 155.535 35.8496 119.838 63.4889C109.802 71.2555 108.01 75.4881 107.14 76.1051C106.271 76.7222 92.8618 83.6014 100.83 109.492C100.83 109.492 100.649 105.468 105.356 102.212C114.099 96.1641 114.203 84.5678 111.159 75.1362C111.159 75.1362 116.286 68.4023 122.329 64.5369C153.322 44.6998 141.766 13.455 109.848 15.5917L109.82 18.5087Z" fill="#00652A"/>
<path d="M113.911 66.6762C113.911 66.6762 101.735 60.1743 93.9766 73.1347C93.9766 73.1347 105.022 81.6075 113.911 66.6762Z" fill="#00652A"/>
<path d="M116.848 69.4502C116.848 69.4502 129.864 82.3749 118.212 98.905C118.212 98.905 108.199 83.5631 116.848 69.4502Z" fill="#00652A"/>
<path d="M101.608 45.9848C101.608 45.9848 107.018 46.3851 112.171 39.381C112.171 39.381 142.037 44.8196 140.423 70.4523C140.423 70.4523 140.145 82.2883 123.546 88.4204C123.546 88.4204 123.923 86.2608 123.89 85.6157C123.857 84.9706 139 81.7503 134.199 66.5639C129.397 51.3776 101.608 45.9848 101.608 45.9848Z" fill="#95C11F"/>
<path d="M105.05 64.1469C105.05 64.1469 99.6423 63.7109 94.4407 70.6794C94.4407 70.6794 64.6086 65.0342 66.3934 39.4142C66.3934 39.4142 66.7555 27.5808 83.3926 21.5659C83.3926 21.5659 83.0025 23.723 83.0331 24.3707C83.0637 25.0183 67.8952 28.1316 72.5919 43.3511C77.2885 58.5706 105.05 64.1469 105.05 64.1469Z" fill="#95C11F"/>
<path d="M97.49 91.1029C96.6486 91.3272 94.4175 91.5261 92.24 91.4394C78.836 90.9091 52.2828 73.2597 87.5051 46.0028C97.5435 38.2464 99.336 34.0036 100.205 33.4019C101.075 32.8001 114.484 25.8903 106.516 3.05176e-05C106.516 3.05176e-05 106.697 4.02355 101.99 7.27959C93.2472 13.3302 93.1427 24.9239 96.1871 34.3555C96.1871 34.3555 91.057 41.0919 85.0166 44.9574C54.0192 64.7817 65.5619 96.029 97.4925 93.8897L97.49 91.1029Z" fill="#00652A"/>
<path d="M93.4312 42.8079C93.4312 42.8079 105.609 49.3123 113.365 36.3493C113.365 36.3493 102.32 27.8739 93.4312 42.8079Z" fill="#00652A"/>
<path d="M90.119 40.1077C90.119 40.1077 77.1025 27.1829 88.7549 10.6529C88.7549 10.6529 98.7678 25.9922 90.119 40.1077Z" fill="#00652A"/>
<path d="M169.391 58.6446V63.7441C168.685 64.1639 167.937 64.5059 167.157 64.764C166.446 65.0036 165.713 65.1744 164.97 65.274C164.221 65.3706 163.468 65.4175 162.713 65.4142C161.373 65.4392 160.043 65.1785 158.812 64.6493C157.721 64.176 156.753 63.461 155.979 62.5585C155.225 61.6661 154.652 60.6356 154.291 59.5243C153.913 58.3722 153.723 57.167 153.728 55.9546C153.717 54.672 153.931 53.3973 154.36 52.1886C154.758 51.0682 155.375 50.0385 156.175 49.1595C156.969 48.3007 157.938 47.6225 159.016 47.1707C160.174 46.6867 161.42 46.4455 162.675 46.4619C163.408 46.431 164.141 46.5058 164.852 46.6837C165.371 46.8592 165.876 47.0723 166.364 47.3211C166.815 47.5699 167.316 47.7129 167.83 47.7393C167.946 47.736 168.06 47.7037 168.16 47.6454C168.26 47.587 168.344 47.5045 168.404 47.4053C168.583 47.121 168.689 46.7969 168.713 46.4619H169.401V52.4767H168.713C168.158 50.8092 167.421 49.5921 166.499 48.8255C165.636 48.0768 164.532 47.6649 163.389 47.6654C159.967 47.6654 158.257 50.5449 158.259 56.3039C158.259 59.5064 158.703 61.6312 159.592 62.6783C160.004 63.1834 160.526 63.5878 161.118 63.8609C161.711 64.1339 162.357 64.2684 163.009 64.2541C163.83 64.2551 164.64 64.0537 165.365 63.6676V58.6446C165.365 58.0616 165.212 57.6502 164.906 57.4105C164.6 57.1708 164.074 57.051 163.328 57.051H162.914V56.3498H171.5V57.0383H171.428C170.68 57.0383 170.154 57.1589 169.85 57.4003C169.546 57.6417 169.393 58.0565 169.391 58.6446Z" fill="#00652A"/>
<path d="M173.195 65.0418V64.4553H173.338C174.018 64.44 174.358 64.0703 174.358 63.3462V54.2691C174.369 53.9909 174.297 53.7158 174.151 53.4786C174.011 53.2696 173.69 53.1676 173.182 53.1676V52.5735H177.892V54.0243C178.181 53.4548 178.615 52.9719 179.151 52.6245C179.637 52.3069 180.205 52.1368 180.786 52.1349C181.288 52.1241 181.779 52.2802 182.183 52.5786C182.384 52.7384 182.542 52.9447 182.646 53.1798C182.749 53.4148 182.793 53.6714 182.774 53.9274C182.789 54.1837 182.751 54.4403 182.66 54.6806C182.57 54.9209 182.43 55.1395 182.249 55.3221C181.922 55.6371 181.487 55.8134 181.033 55.8142C180.772 55.8389 180.511 55.7828 180.283 55.6536C180.08 55.4842 179.889 55.3001 179.712 55.1028C179.56 54.8936 179.33 54.7534 179.075 54.7127C178.863 54.6939 178.651 54.7511 178.477 54.8739C178.304 54.9967 178.179 55.1773 178.126 55.3833C177.97 55.9719 177.9 56.5799 177.917 57.1885V63.3462C177.9 63.6358 177.981 63.9228 178.149 64.1596C178.302 64.3559 178.618 64.4553 179.098 64.4553V65.0418H173.195Z" fill="#00652A"/>
<path d="M190.051 65.4088C189.032 65.4009 188.034 65.1213 187.159 64.5986C186.284 64.076 185.564 63.3294 185.074 62.4358C184.467 61.3178 184.168 60.0586 184.207 58.7871C184.195 57.6134 184.457 56.4532 184.972 55.3985C185.438 54.4243 186.162 53.5963 187.066 53.0042C187.956 52.4249 188.999 52.1223 190.062 52.1348C191.036 52.1398 191.993 52.3981 192.838 52.8844C193.766 53.4181 194.529 54.1982 195.041 55.1384C195.605 56.2717 195.898 57.5201 195.898 58.7858C195.898 60.0515 195.605 61.2999 195.041 62.4332C194.534 63.3708 193.773 64.1466 192.846 64.6719C191.992 65.1516 191.03 65.4052 190.051 65.4088ZM190.051 64.3303C190.939 64.3303 191.504 63.8314 191.747 62.8335C192.022 61.503 192.144 60.1454 192.112 58.7871C192.145 57.4178 192.023 56.0491 191.747 54.7075C191.502 53.708 190.937 53.2082 190.051 53.2082C189.837 53.1998 189.623 53.2393 189.426 53.324C189.229 53.4087 189.053 53.5364 188.912 53.6978C188.606 54.0679 188.392 54.5046 188.287 54.9726C188.148 55.5354 188.063 56.1099 188.032 56.6886C188 57.304 187.983 57.9992 187.981 58.7743C187.947 60.1328 188.07 61.4906 188.348 62.8208C188.598 63.8271 189.166 64.3303 190.051 64.3303Z" fill="#00652A"/>
<path d="M205.22 65.0418V63.489C204.884 64.0974 204.378 64.5952 203.764 64.9219C203.209 65.2278 202.587 65.3924 201.954 65.4013C201.545 65.4059 201.139 65.3268 200.761 65.169C200.384 65.0111 200.043 64.7778 199.758 64.4834C199.147 63.8714 198.841 62.9918 198.841 61.8444V54.2639C198.852 53.9911 198.789 53.7204 198.657 53.4812C198.535 53.2789 198.252 53.1718 197.808 53.1599H197.66V52.5735H202.375V61.8801C202.375 62.9578 202.715 63.4966 203.394 63.4966C203.703 63.4966 204.027 63.313 204.366 62.9484C204.713 62.5708 204.998 62.1405 205.21 61.6735V54.2639C205.21 53.5296 204.817 53.1599 204.029 53.1599V52.5735H208.746V63.3462C208.73 63.6346 208.809 63.9204 208.971 64.1596C209.121 64.3559 209.437 64.4553 209.919 64.4553V65.0418H205.22Z" fill="#00652A"/>
<path d="M215.477 52.135H216.166V53.6878C216.798 52.6526 217.684 52.135 218.823 52.135C220.113 52.135 221.133 52.7299 221.882 53.9198C222.632 55.1097 223.004 56.8044 222.999 59.004C223.018 60.1415 222.832 61.2731 222.448 62.3442C222.145 63.2253 221.607 64.0071 220.893 64.6058C220.246 65.135 219.434 65.4193 218.598 65.409C218.132 65.4157 217.669 65.3156 217.247 65.1163C216.825 64.917 216.454 64.6238 216.163 64.2591V68.2596C216.163 68.9973 216.507 69.3654 217.196 69.3637H217.512V69.9501H211.456V69.3535H211.602C212.282 69.3535 212.622 68.9863 212.622 68.252V54.8199C212.632 54.5407 212.568 54.2638 212.438 54.0167C212.316 53.7999 212.035 53.6929 211.591 53.6929H211.446V53.0962L215.477 52.135ZM216.166 55.5261V62.9204C216.352 63.2397 216.6 63.5188 216.895 63.7415C217.132 63.9396 217.428 64.0551 217.736 64.0704C218.333 64.0704 218.732 63.7542 218.932 63.1219C219.159 62.2977 219.261 61.4443 219.236 60.59C219.236 60.3707 219.236 60.0647 219.223 59.6695C219.21 59.2743 219.223 58.9989 219.223 58.8485V57.9612C219.251 56.9535 219.148 55.9463 218.917 54.9652C218.716 54.2326 218.263 53.8662 217.558 53.8662C217.21 53.8818 216.883 54.0328 216.645 54.287C216.486 54.4507 216.362 54.6448 216.279 54.8577C216.197 55.0706 216.158 55.298 216.166 55.5261Z" fill="#00652A"/>
<path d="M0 66.6941V65.9801H0.150436C0.372625 65.9898 0.594495 65.9548 0.802948 65.8773C1.0114 65.7998 1.20221 65.6813 1.36412 65.5288C1.66754 65.2305 1.98371 64.6695 2.30753 63.8409L8.42695 48.1063H9.01339L15.9589 64.7996C16.2827 65.5824 16.7723 65.975 17.4327 65.975H17.5041V66.6889H9.22757V65.975H9.9925C10.6724 65.975 11.1203 65.89 11.3362 65.72C11.4437 65.6341 11.5293 65.5239 11.586 65.3984C11.6428 65.273 11.669 65.136 11.6626 64.9985C11.6475 64.7701 11.5886 64.5468 11.4892 64.3406L10.199 61.1254H4.58956L3.53396 63.8485C3.38562 64.1811 3.29922 64.538 3.27899 64.9016C3.26317 65.0848 3.308 65.2682 3.40659 65.4234C3.50518 65.5787 3.65207 65.6972 3.82464 65.7608C4.31719 65.9256 4.83549 65.9999 5.35449 65.9801H5.44883V66.6941H0ZM7.28721 54.0549L5.03322 59.9474H9.79107L7.28721 54.0549Z" fill="#00652A"/>
<path d="M18.4067 66.694V65.9801H19.2405C20.2604 65.9801 20.7704 65.4489 20.7704 64.3865V50.7938C20.7704 50.1665 20.6131 49.7416 20.2987 49.5189C19.9867 49.3082 19.6168 49.2004 19.2405 49.2104H18.4067V48.4939H26.8209C27.8363 48.4745 28.8495 48.5946 29.8322 48.8508C30.5704 49.0384 31.2639 49.3713 31.872 49.8299C32.3677 50.2133 32.7632 50.7111 33.0245 51.2808C33.2754 51.8314 33.4042 52.4299 33.4019 53.035C33.4243 53.8069 33.2089 54.5671 32.7848 55.2125C32.3887 55.8069 31.8389 56.2827 31.1938 56.5894C30.5651 56.8926 29.8817 57.066 29.1846 57.0993V57.3976C30.0306 57.4453 30.8577 57.6666 31.6145 58.0478C32.3312 58.4037 32.9408 58.9429 33.3815 59.6108C33.8237 60.2933 34.0519 61.0925 34.0367 61.9056C34.0367 63.2655 33.6432 64.2998 32.8562 65.0087C32.0853 65.7096 31.136 66.1843 30.1127 66.3804C29.037 66.5927 27.9429 66.6978 26.8464 66.694H18.4067ZM24.7811 49.6642V56.7525L25.7653 56.7755C26.9552 56.7755 27.8247 56.4296 28.3737 55.7377C28.9392 55.0106 29.2324 54.1086 29.2024 53.188C29.2182 52.7182 29.1387 52.2501 28.9687 51.8119C28.7987 51.3736 28.5416 50.9744 28.2131 50.6382C27.5519 49.9753 26.5796 49.643 25.2962 49.6413C25.1267 49.6385 24.9573 49.6462 24.7888 49.6642H24.7811ZM24.7811 57.9331V63.721C24.7811 64.9109 25.2962 65.5059 26.3263 65.5059C26.964 65.5211 27.5926 65.352 28.1366 65.0189C28.6543 64.688 29.0617 64.2104 29.3069 63.6471C29.5875 63.0043 29.7258 62.3085 29.7124 61.6073C29.7124 60.0774 29.2806 59.083 28.4171 58.6241C27.589 58.1686 26.6594 57.9292 25.7143 57.928L24.7811 57.9331Z" fill="#00652A"/>
<path d="M46.0892 49.6641V64.3864C46.0892 64.9856 46.2422 65.4063 46.5532 65.6332C46.8576 65.8632 47.2299 65.9852 47.6114 65.98H48.6313V66.6939H39.5388V65.98H40.5587C40.9394 65.9852 41.3109 65.8632 41.6143 65.6332C41.9203 65.4012 42.0758 64.9856 42.0758 64.3864V49.6641H41.3313C40.6697 49.6513 40.0089 49.7172 39.3629 49.8604C38.7724 50.0395 38.2623 50.418 37.9197 50.9313C37.4812 51.5127 37.1863 52.4161 37.035 53.6417H36.321V48.4836H51.8363V53.6417H51.1224C50.9694 52.4144 50.6745 51.511 50.2376 50.9313C49.8951 50.418 49.385 50.0395 48.7945 49.8604C48.1484 49.7173 47.4876 49.6514 46.826 49.6641H46.0892Z" fill="#00652A"/>
</svg>
